# xmcd
#
# Track frame offsets: 
#        150
#        12482
#        24787
#        36954
#        49424
#        61683
#        74854
#        87274
#        100089
#        112836
#        125136
#        137357
#        149470
#        161051
#        172831
#        185428
#        197686
#        209804
#        222520
#        235648
#
# Disc length: 3317 seconds
#
# Revision: 2
# Processed by: cddbd v1.5.2PL0 Copyright (c) Steve Scherf et al.
# Submitted via: ExactAudioCopyFreeDBPlugin 1.0
#
DISCID=240cf314
DTITLE=Hank Williams - The Absolutely Essential Collection CD1
DYEAR=2009
DGENRE=Country
TTITLE0=Move It on Over
TTITLE1=I Saw the Light
TTITLE2=(Last Night) I Heard You Crying in Your Sleep
TTITLE3=Six More Miles (To the Graveyard)
TTITLE4=Fly Trouble
TTITLE5=On the Banks of the Old Pontchartrain
TTITLE6=Rootie Tootie
TTITLE7=I Can't Get You off of My Mind
TTITLE8=I'm a Long Gone Daddy
TTITLE9=Honky Tonkin'
TTITLE10=My Sweet Love Ain't Around
TTITLE11=The Blues Come Around
TTITLE12=A Mansion on the Hill
TTITLE13=I'll Be a Bachelor 'Til I Die
TTITLE14=There'll Be No Teardrops Tonight
TTITLE15=Lovesick Blues
TTITLE16=Lost Highway
TTITLE17=May You Never Be Alone
TTITLE18=Mind Your Own Business
TTITLE19=You're Gonna Change (Or I'm Gonna Leave)
EXTD=
EXTT0=
EXTT1=
EXTT2=
EXTT3=
EXTT4=
EXTT5=
EXTT6=
EXTT7=
EXTT8=
EXTT9=
EXTT10=
EXTT11=
EXTT12=
EXTT13=
EXTT14=
EXTT15=
EXTT16=
EXTT17=
EXTT18=
EXTT19=
PLAYORDER=
